<?xml version="1.0" encoding="UTF-8"?>
<svg width="500px" height="500px" viewBox="0 0 500 500" version="1.1" xmlns="http://www.w3.org/2000/svg" xmlns:xlink="http://www.w3.org/1999/xlink">
    <!-- Generator: Sketch 49.2 (51160) - http://www.bohemiancoding.com/sketch -->
    <title>commercial</title>
    <desc>Created with Sketch.</desc>
    <defs></defs>
    <g id="commercial" stroke="none" stroke-width="1" fill="none" fill-rule="evenodd">
        <path d="M364.333008,472.666992 L131,472.666992 C126.400391,472.666992 122.666992,476.400391 122.666992,481 L122.666992,497.666992 C122.666992,502.266602 126.400391,506 131,506 C135.599609,506 139.333008,502.266602 139.333008,497.666992 L139.333008,489.333984 L364.333008,489.333984 C368.932617,489.333984 372.666016,485.600586 372.666016,481.000977 C372.666016,476.401367 368.933594,472.666992 364.333008,472.666992 Z" id="Shape" fill="#343849" fill-rule="nonzero"></path>
        <path d="M189.333008,214.333008 C189.333008,218.932617 193.066406,222.666016 197.666016,222.666016 L231,222.666016 C235.599609,222.666016 239.333008,218.932617 239.333008,214.333008 L239.333008,164.333008 C239.333008,159.733398 235.599609,156 231,156 L197.666992,156 C193.067383,156 189.333984,159.733398 189.333984,164.333008 L189.333984,214.333008 L189.333008,214.333008 Z M206,172.666992 L222.666992,172.666992 L222.666992,206 L206,206 L206,172.666992 Z" id="Shape" fill="#343849" fill-rule="nonzero"></path>
        <path d="M114.333008,106 L14.3330078,106 C9.73339844,106 6,109.733398 6,114.333008 L6,281 C6,285.599609 9.73339844,289.333008 14.3330078,289.333008 C18.9326172,289.333008 22.6660156,285.599609 22.6660156,281 L22.6660156,122.666992 L114.333008,122.666992 C118.932617,122.666992 122.666016,118.933594 122.666016,114.333984 C122.666016,109.734375 118.933594,106 114.333008,106 Z" id="Shape" fill="#343849" fill-rule="nonzero"></path>
        <path d="M406,414.333008 C406,418.932617 409.733398,422.666016 414.333008,422.666016 L447.666016,422.666016 C452.265625,422.666016 455.999023,418.932617 455.999023,414.333008 L455.999023,364.333008 C455.999023,359.733398 452.265625,356 447.666016,356 L414.333008,356 C409.733398,356 406,359.733398 406,364.333008 L406,414.333008 Z M422.666992,372.666992 L439.333984,372.666992 L439.333984,406 L422.666992,406 L422.666992,372.666992 Z" id="Shape" fill="#343849" fill-rule="nonzero"></path>
        <path d="M22,336.766883 C33.5103967,326.049463 42.0789488,320.690753 47.7056564,320.690753 C53.332364,320.690753 62.8414403,327.714158 76.2328854,341.760968 L79,439 C65.049457,441.674472 54.6180091,443.011709 47.7056564,443.011709 C40.7933037,443.011709 32.2247515,441.674472 22,439 L22,336.766883 Z" id="Rectangle" fill="#343849" opacity="0.3"></path>
        <path d="M423.28193,467.22151 C432.240238,451.073837 439.532745,443 445.159453,443 C449.437774,443 457.96245,452.390352 475.150314,461.726078 C478.76168,463.68762 485.556023,465.519431 495.533342,467.22151 L492.977256,493.874124 L407.212488,493.874124 C400.903475,496.347464 398.534693,489.891083 400.106142,474.50498 C401.677591,459.118876 409.402854,456.691053 423.28193,467.22151 Z" id="Rectangle" fill="#343849" opacity="0.3"></path>
        <path d="M47.6669922,306 C6.47460938,306 6,413.25 6,414.333008 C6,434.458008 20.3417969,451.283203 39.3330078,455.158203 L39.3330078,497.666992 C39.3330078,502.266602 43.0664063,506 47.6660156,506 C52.265625,506 55.9990234,502.266602 55.9990234,497.666992 L55.9990234,455.158203 C74.9902344,451.283203 89.3320313,434.458008 89.3320313,414.333008 C89.3330078,413.25 88.8583984,306 47.6669922,306 Z M47.6669922,439.333008 C33.8837891,439.333008 22.6669922,428.116211 22.6669922,414.333008 C22.6669922,372.816406 33.8173828,322.666016 47.6669922,322.666016 C61.5166016,322.666016 72.6669922,372.816406 72.6669922,414.333008 C72.6669922,428.116211 61.4501953,439.333008 47.6669922,439.333008 Z" id="Shape" fill="#343849" fill-rule="nonzero"></path>
        <path d="M97.6669922,256 L64.3330078,256 C59.7333984,256 56,259.733398 56,264.333008 L56,281 C56,285.599609 59.7333984,289.333008 64.3330078,289.333008 C68.9326172,289.333008 72.6660156,285.599609 72.6660156,281 L72.6660156,272.666992 L89.3330078,272.666992 L89.3330078,314.333984 C89.3330078,318.933594 93.0664062,322.666992 97.6660156,322.666992 C102.265625,322.666992 105.999023,318.933594 105.999023,314.333984 L105.999023,264.333984 C106,259.733398 102.266602,256 97.6669922,256 Z" id="Shape" fill="#343849" fill-rule="nonzero"></path>
        <path d="M414.333008,222.666992 L447.666016,222.666992 C452.265625,222.666992 455.999023,218.933594 455.999023,214.333984 L455.999023,164.333984 C455.999023,159.734375 452.265625,156.000977 447.666016,156.000977 L414.333008,156.000977 C409.733398,156.000977 406,159.734375 406,164.333984 L406,214.333984 C406,218.933594 409.733398,222.666992 414.333008,222.666992 Z M422.666992,172.666992 L439.333984,172.666992 L439.333984,206 L422.666992,206 L422.666992,172.666992 Z" id="Shape" fill="#343849" fill-rule="nonzero"></path>
        <path d="M97.6669922,156 L64.3330078,156 C59.7333984,156 56,159.733398 56,164.333008 L56,214.333008 C56,218.932617 59.7333984,222.666016 64.3330078,222.666016 L97.6660156,222.666016 C102.265625,222.666016 105.999023,218.932617 105.999023,214.333008 L105.999023,164.333008 C106,159.733398 102.266602,156 97.6669922,156 Z M89.3330078,206 L72.6669922,206 L72.6669922,172.666992 L89.3339844,172.666992 L89.3339844,206 L89.3330078,206 Z" id="Shape" fill="#343849" fill-rule="nonzero"></path>
        <path d="M272.666992,214.333008 C272.666992,218.932617 276.400391,222.666016 281,222.666016 L314.333008,222.666016 C318.932617,222.666016 322.666016,218.932617 322.666016,214.333008 L322.666016,164.333008 C322.666016,159.733398 318.932617,156 314.333008,156 L281,156 C276.400391,156 272.666992,159.733398 272.666992,164.333008 L272.666992,214.333008 Z M289.333008,172.666992 L306,172.666992 L306,206 L289.333008,206 L289.333008,172.666992 Z" id="Shape" fill="#343849" fill-rule="nonzero"></path>
        <path d="M497.666992,106 L397.666992,106 C393.067383,106 389.333984,109.733398 389.333984,114.333008 C389.333984,118.932617 393.067383,122.666016 397.666992,122.666016 L489.333984,122.666016 L489.333984,457.533203 C486.717773,456.599609 483.942383,456 481.000977,456 C479.55957,456 478.125977,456.125 476.717773,456.375 C470.967773,446.016602 460.026367,439.333008 447.667969,439.333008 C435.30957,439.333008 424.368164,446.016602 418.618164,456.375 C417.209961,456.125 415.776367,456 414.334961,456 C400.551758,456 389.334961,467.216797 389.334961,481 C389.334961,494.783203 400.551758,506 414.334961,506 L481,506 C494.783203,506 506,494.783203 506,481 L506,114.333008 C506,109.733398 502.266602,106 497.666992,106 Z M481,489.333008 L414.333008,489.333008 C409.741211,489.333008 406,485.591797 406,481 C406,476.408203 409.741211,472.666992 414.333008,472.666992 C415.932617,472.666992 417.449219,473.125 418.849609,474.025391 C421.132812,475.492188 423.983398,475.758789 426.5,474.742188 C429.016602,473.725586 430.875,471.541992 431.483398,468.900391 C433.242188,461.308594 439.900391,456 447.666992,456 C455.433594,456 462.091797,461.308594 463.850586,468.900391 C464.458984,471.541992 466.317383,473.725586 468.833984,474.742188 C471.342773,475.758789 474.200195,475.492187 476.484375,474.025391 C481.90918,470.525391 489.333984,474.808594 489.333984,481 C489.333008,485.591797 485.591797,489.333008 481,489.333008 Z" id="Shape" fill="#343849" fill-rule="nonzero"></path>
        <path d="M281,122.666992 L314.333008,122.666992 C318.932617,122.666992 322.666016,118.933594 322.666016,114.333984 L322.666016,64.3339844 C322.666016,59.734375 318.932617,56.0009766 314.333008,56.0009766 L281,56.0009766 C276.400391,56.0009766 272.666992,59.734375 272.666992,64.3339844 L272.666992,114.333984 C272.666992,118.933594 276.400391,122.666992 281,122.666992 Z M289.333008,72.6669922 L306,72.6669922 L306,106 L289.333008,106 L289.333008,72.6669922 Z" id="Shape" fill="#343849" fill-rule="nonzero"></path>
        <path d="M272.666992,314.333008 C272.666992,318.932617 276.400391,322.666016 281,322.666016 L314.333008,322.666016 C318.932617,322.666016 322.666016,318.932617 322.666016,314.333008 L322.666016,264.333008 C322.666016,259.733398 318.932617,256 314.333008,256 L281,256 C276.400391,256 272.666992,259.733398 272.666992,264.333008 L272.666992,314.333008 Z M289.333008,272.666992 L306,272.666992 L306,306 L289.333008,306 L289.333008,272.666992 Z" id="Shape" fill="#343849" fill-rule="nonzero"></path>
        <path d="M197.666992,122.666992 L231,122.666992 C235.599609,122.666992 239.333008,118.933594 239.333008,114.333984 L239.333008,64.3339844 C239.333008,59.734375 235.599609,56.0009766 231,56.0009766 L197.666992,56.0009766 C193.067383,56.0009766 189.333984,59.734375 189.333984,64.3339844 L189.333984,114.333984 C189.333008,118.933594 193.066406,122.666992 197.666992,122.666992 Z M206,72.6669922 L222.666992,72.6669922 L222.666992,106 L206,106 L206,72.6669922 Z" id="Shape" fill="#343849" fill-rule="nonzero"></path>
        <path d="M250.083008,408.416992 C248.583008,410 247.666016,412.166992 247.666016,414.333984 C247.666016,416.500977 248.583008,418.666992 250.083008,420.250977 C251.666016,421.750977 253.833008,422.667969 256,422.667969 C258.166992,422.667969 260.333008,421.750977 261.916992,420.250977 C263.416992,418.667969 264.333984,416.500977 264.333984,414.333984 C264.333984,412.166992 263.416992,410.000977 261.916992,408.416992 C258.75,405.333008 253.25,405.333008 250.083008,408.416992 Z" id="Shape" fill="#343849" fill-rule="nonzero"></path>
        <path d="M189.333008,314.333008 C189.333008,318.932617 193.066406,322.666016 197.666016,322.666016 L231,322.666016 C235.599609,322.666016 239.333008,318.932617 239.333008,314.333008 L239.333008,264.333008 C239.333008,259.733398 235.599609,256 231,256 L197.666992,256 C193.067383,256 189.333984,259.733398 189.333984,264.333008 L189.333984,314.333008 L189.333008,314.333008 Z M206,272.666992 L222.666992,272.666992 L222.666992,306 L206,306 L206,272.666992 Z" id="Shape" fill="#343849" fill-rule="nonzero"></path>
        <path d="M172.666992,364.333008 C172.666992,368.932617 176.400391,372.666016 181,372.666016 L206,372.666016 L206,447.666016 C206,452.265625 209.733398,455.999023 214.333008,455.999023 C218.932617,455.999023 222.666016,452.265625 222.666016,447.666016 L222.666016,372.666016 L289.333008,372.666016 L289.333008,447.666016 C289.333008,452.265625 293.066406,455.999023 297.666016,455.999023 C302.265625,455.999023 305.999023,452.265625 305.999023,447.666016 L305.999023,372.666016 L330.999023,372.666016 C335.598633,372.666016 339.332031,368.932617 339.332031,364.333008 C339.332031,359.733398 335.598633,356 330.999023,356 L181,356 C176.400391,356 172.666992,359.733398 172.666992,364.333008 Z" id="Shape" fill="#343849" fill-rule="nonzero"></path>
        <path d="M406,314.333008 C406,318.932617 409.733398,322.666016 414.333008,322.666016 L447.666016,322.666016 C452.265625,322.666016 455.999023,318.932617 455.999023,314.333008 L455.999023,264.333008 C455.999023,259.733398 452.265625,256 447.666016,256 L414.333008,256 C409.733398,256 406,259.733398 406,264.333008 L406,314.333008 Z M422.666992,272.666992 L439.333984,272.666992 L439.333984,306 L422.666992,306 L422.666992,272.666992 Z" id="Shape" fill="#343849" fill-rule="nonzero"></path>
        <path d="M364.333008,6 L147.666992,6 C143.067383,6 139.333984,9.73339844 139.333984,14.3330078 L139.333984,472.70087 C139.333984,477.300479 143.067383,481.033878 147.666992,481.033878 C152.266602,481.033878 156,477.300479 156,472.70087 L156,22.6660156 L356,22.6660156 L356,500.724447 C356,505.324056 359.733398,509.057455 364.333008,509.057455 C368.932617,509.057455 372.666016,505.324056 372.666016,500.724447 L372.666016,14.3330078 C372.666992,9.73339844 368.933594,6 364.333008,6 Z" id="Shape" fill="#343849" fill-rule="nonzero"></path>
    </g>
</svg>