<?xml version="1.0" encoding="UTF-8"?>
<svg width="500px" height="500px" viewBox="0 0 500 500" version="1.1" xmlns="http://www.w3.org/2000/svg" xmlns:xlink="http://www.w3.org/1999/xlink">
    <!-- Generator: Sketch 49.2 (51160) - http://www.bohemiancoding.com/sketch -->
    <title>residential</title>
    <desc>Created with Sketch.</desc>
    <defs></defs>
    <g id="residential" stroke="none" stroke-width="1" fill="none" fill-rule="evenodd">
        <rect id="Rectangle" fill="#343849" opacity="0.22" x="272" y="328" width="57" height="119"></rect>
        <polygon id="Rectangle" fill="#343849" opacity="0.3" points="347.650573 49.2800575 489.325512 156.432231 484.3873 193.063159 347.650573 87.9712361 214.622296 193.063159 205.975634 156.432231"></polygon>
        <polygon id="Rectangle" fill="#343849" opacity="0.3" points="124.570799 226.477545 222.619725 295.630323 222.619725 340.033354 124.570799 267.126801 8.64666231 364.783102 6.84963197e-12 328.152174"></polygon>
        <path d="M486.887689,206.489116 C488.344492,207.637266 490.115551,208.227003 491.901728,208.227003 C493.104752,208.227003 494.313175,207.959137 495.436285,207.414765 C498.227862,206.060315 500,203.229364 500,200.126227 L500,156.922093 C500,154.440016 498.862851,152.095111 496.913607,150.559204 L365.057235,46.6543411 C355.809935,39.3668837 342.893089,39.3679638 333.645788,46.6543411 L284.017279,85.7627235 L284.017279,70.5138243 C284.017279,66.0400362 280.390929,62.4130491 275.917927,62.4130491 L241.360691,62.4130491 C236.887689,62.4130491 233.261339,66.0400362 233.261339,70.5138243 L233.261339,125.760031 L201.790497,150.559204 C199.841253,152.095111 198.704104,154.440016 198.704104,156.922093 L198.704104,200.126227 C198.704104,203.229364 200.476242,206.060315 203.267819,207.414765 C206.058315,208.769214 209.37905,208.41062 211.816415,206.490196 L215.982721,203.206682 L215.982721,282.147116 L140.435205,222.615059 C131.187905,215.327602 118.271058,215.327602 109.023758,222.615059 L3.08639309,306.094088 C1.13714903,307.628915 4.7957798e-16,309.974899 4.7957798e-16,312.456977 L4.7957798e-16,355.661111 C4.7957798e-16,358.764248 1.77213823,361.595199 4.5637149,362.949649 C5.68682505,363.495101 6.89524838,363.761886 8.09827214,363.761886 C9.88336933,363.761886 11.6555076,363.17215 13.112311,362.024 L17.2786177,358.740486 L17.2786177,442.609432 L8.09935205,442.609432 C3.62634989,442.609432 0,446.236419 0,450.710207 C0,455.183995 3.62634989,458.810982 8.09935205,458.810982 L491.900648,458.810982 C496.37365,458.810982 500,455.183995 500,450.710207 C500,446.236419 496.37365,442.609432 491.900648,442.609432 L482.721382,442.609432 L482.721382,203.205602 L486.887689,206.489116 Z M249.460043,78.6145995 L267.818575,78.6145995 L267.818575,98.5284651 L249.460043,112.99537 L249.460043,78.6145995 Z M214.902808,160.852589 L343.671706,59.381199 C347.016199,56.7457468 351.688985,56.7457468 355.033477,59.381199 L483.801296,160.852589 L483.801296,183.42999 L354.365011,81.4325891 C352.895248,80.2736382 351.12419,79.6947028 349.352052,79.6947028 C347.579914,79.6947028 345.809935,80.2736382 344.339093,81.4325891 L214.902808,183.42999 L214.902808,160.852589 Z M16.1987041,316.387473 L119.049676,235.339757 C122.394168,232.704305 127.066955,232.704305 130.411447,235.339757 L215.982721,302.77169 L215.982721,325.350171 L129.742981,257.391147 C126.802376,255.073245 122.657667,255.073245 119.718143,257.391147 L16.1987041,338.965953 L16.1987041,316.387473 Z M33.4773218,345.975824 L124.730022,274.067943 L215.982721,345.976904 L215.982721,442.610512 L180.345572,442.610512 L180.345572,347.021364 C180.345572,342.547576 176.719222,338.920589 172.24622,338.920589 L77.2138229,338.920589 C72.7408207,338.920589 69.1144708,342.547576 69.1144708,347.021364 L69.1144708,442.610512 L33.4773218,442.610512 L33.4773218,345.975824 Z M85.3131749,389.684367 L164.146868,389.684367 L164.146868,408.046124 L85.3131749,408.046124 L85.3131749,389.684367 Z M164.146868,373.482817 L85.3131749,373.482817 L85.3131749,355.121059 L164.146868,355.121059 L164.146868,373.482817 Z M85.3131749,424.247674 L164.146868,424.247674 L164.146868,442.609432 L85.3131749,442.609432 L85.3131749,424.247674 Z M319.654428,382.150646 C319.475162,382.138765 319.294816,382.123643 319.114471,382.123643 C316.987041,382.123643 314.892009,382.987726 313.390929,384.499871 C311.87905,386.001214 311.015119,388.096615 311.015119,390.224419 C311.015119,392.352222 311.87905,394.447623 313.390929,395.948966 C314.892009,397.461111 316.987041,398.325194 319.114471,398.325194 C319.294816,398.325194 319.475162,398.310072 319.654428,398.298191 L319.654428,442.609432 L284.017279,442.609432 L284.017279,337.839406 L319.654428,337.839406 L319.654428,382.150646 Z M466.522678,442.609432 L335.853132,442.609432 L335.853132,329.73863 C335.853132,325.264842 332.226782,321.637855 327.75378,321.637855 L275.917927,321.637855 C271.444924,321.637855 267.818575,325.264842 267.818575,329.73863 L267.818575,442.609432 L232.181425,442.609432 L232.181425,190.440941 L349.352052,98.1083049 L466.522678,190.440941 L466.522678,442.609432 Z" id="Shape" fill="#343849" fill-rule="nonzero"></path>
        <path d="M370.950324,406.966021 L422.786177,406.966021 C427.259179,406.966021 430.885529,403.339034 430.885529,398.865245 L430.885529,329.73863 C430.885529,325.264842 427.259179,321.637855 422.786177,321.637855 L370.950324,321.637855 C366.477322,321.637855 362.850972,325.264842 362.850972,329.73863 L362.850972,398.865245 C362.850972,403.339034 366.477322,406.966021 370.950324,406.966021 Z M379.049676,390.76447 L379.049676,363.761886 L414.686825,363.761886 L414.686825,390.76447 L379.049676,390.76447 Z M414.686825,337.839406 L414.686825,347.560336 L379.049676,347.560336 L379.049676,337.839406 L414.686825,337.839406 Z" id="Shape" fill="#343849" fill-rule="nonzero"></path>
        <path d="M370.950324,285.994444 L422.786177,285.994444 C427.259179,285.994444 430.885529,282.367457 430.885529,277.893669 L430.885529,208.767054 C430.885529,204.293266 427.259179,200.666279 422.786177,200.666279 L370.950324,200.666279 C366.477322,200.666279 362.850972,204.293266 362.850972,208.767054 L362.850972,277.893669 C362.850972,282.367457 366.477322,285.994444 370.950324,285.994444 Z M379.049676,269.792894 L379.049676,242.79031 L414.686825,242.79031 L414.686825,269.792894 L379.049676,269.792894 Z M414.686825,216.867829 L414.686825,226.58876 L379.049676,226.58876 L379.049676,216.867829 L414.686825,216.867829 Z" id="Shape" fill="#343849" fill-rule="nonzero"></path>
        <path d="M327.75378,200.666279 L275.917927,200.666279 C271.444924,200.666279 267.818575,204.293266 267.818575,208.767054 L267.818575,277.893669 C267.818575,282.367457 271.444924,285.994444 275.917927,285.994444 L327.75378,285.994444 C332.226782,285.994444 335.853132,282.367457 335.853132,277.893669 L335.853132,208.767054 C335.853132,204.293266 332.226782,200.666279 327.75378,200.666279 Z M319.654428,216.867829 L319.654428,226.58876 L284.017279,226.58876 L284.017279,216.867829 L319.654428,216.867829 Z M284.017279,269.792894 L284.017279,242.79031 L319.654428,242.79031 L319.654428,269.792894 L284.017279,269.792894 Z" id="Shape" fill="#343849" fill-rule="nonzero"></path>
    </g>
</svg>